<?xml version="1.0" encoding="UTF-8"?>
<svg width="160px" height="50px" viewBox="0 0 160 50" version="1.1" xmlns="http://www.w3.org/2000/svg" xmlns:xlink="http://www.w3.org/1999/xlink">
    <title>ELEMENTS/Logo / White@3x</title>
    <g id="ELEMENTS/Logo-/-White" stroke="none" fill="none" fill-rule="evenodd" stroke-width="1">
        <g id="ELEMENTS/Logo-sorgenia" transform="translate(0.0855, 0.2561)" fill="#FFFFFF">
            <path d="M22.9984729,26.8902434 L22.9984729,40.0365847 L23.0839691,40.0365847 C23.8534347,35.9390238 27.7862591,27.743902 47.6213732,26.9756093 L47.6213732,26.8902434 L22.9984729,26.8902434 L22.9984729,26.8902434 Z" id="Path" fill-rule="nonzero"></path>
            <path d="M29.0687018,24.4146337 C25.392366,23.6463411 16.3297707,19.8902436 15.3038165,1.99840144e-15 L15.2183204,1.99840144e-15 L15.2183204,24.5 L29.0687018,24.5 L29.0687018,24.4146337 L29.0687018,24.4146337 Z" id="Path" fill-rule="nonzero"></path>
            <path d="M12.8244273,18.8658533 L12.7389311,18.8658533 C12.3114502,22.2804874 10.2595418,31.0731702 0,32.6951214 L0,32.951219 L12.8244273,32.951219 L12.8244273,18.8658533 Z" id="Path" fill-rule="nonzero"></path>
            <path d="M6.75419836,35.4268287 C10.4305342,35.9390238 19.0656485,38.2439018 20.4335874,48.7439016 L20.5190836,48.7439016 L20.5190836,35.256097 L6.75419836,35.256097 L6.75419836,35.4268287 Z" id="Path" fill-rule="nonzero"></path>
            <path d="M55.9145029,8.45121937 L56.0854952,7.8536584 L51.3832052,7.8536584 C49.5877854,7.8536584 48.0488541,8.45121937 46.7664114,9.73170715 C45.4839687,11.0121949 44.7999992,12.4634144 44.7999992,14.3414632 L44.7999992,17.329268 C44.7999992,18.5243899 44.3725183,19.5487802 43.5175565,20.4024387 C42.6625947,21.2560972 41.6366405,21.6829265 40.439694,21.6829265 L39.6702283,21.6829265 C38.8152665,21.6829265 38.0458009,22.0243899 37.4473276,22.6219508 C37.0198467,23.0487801 36.7633582,23.4756094 36.677862,23.9024386 L36.5068696,24.4999996 L41.2946558,24.4999996 C43.0900756,24.4999996 44.6290069,23.9024386 45.9114496,22.6219508 C47.1938923,21.3414631 47.8778618,19.8902436 47.8778618,18.0121948 L47.8778618,15.02439 C47.8778618,13.8292681 48.3053427,12.8048778 49.1603045,11.9512193 C50.0152663,11.0975608 51.0412205,10.6707315 52.1526709,10.6707315 L52.9221365,10.6707315 C53.8625945,10.6707315 54.546564,10.414634 55.2305334,9.73170715 C55.487022,9.39024374 55.8290067,8.96341448 55.9145029,8.45121937" id="Path" fill-rule="nonzero"></path>
            <path d="M62.6687012,7.93902426 C60.3603043,7.93902426 58.4793883,8.70731692 56.7694647,10.3292681 C55.1450372,11.9512193 54.2900754,13.8292681 54.2900754,16.1341461 C54.2900754,18.4390243 55.059541,20.3170728 56.7694647,21.9390243 C58.3938921,23.5609752 60.3603043,24.3292679 62.6687012,24.3292679 C64.9770981,24.3292679 66.8580141,23.5609752 68.5679378,21.9390243 C70.1923652,20.3170728 71.047327,18.4390243 71.047327,16.1341461 C71.047327,13.8292681 70.2778614,11.9512193 68.5679378,10.3292681 C66.8580141,8.79268278 64.9770981,7.93902426 62.6687012,7.93902426 M66.6015256,20.1463411 C65.5755714,21.2560972 64.2076325,21.7682923 62.6687012,21.7682923 C61.12977,21.7682923 59.8473272,21.2560972 58.7358769,20.1463411 C57.7099227,19.036585 57.1969456,17.7560973 57.1969456,16.2195119 C57.1969456,14.6829266 57.7099227,13.4024388 58.7358769,12.2926827 C59.8473272,11.1829266 61.12977,10.5853657 62.6687012,10.5853657 C64.2076325,10.5853657 65.4900752,11.1829266 66.6015256,12.2926827 C67.7129759,13.4024388 68.225953,14.6829266 68.225953,16.2195119 C68.1404569,17.7560973 67.6274798,19.036585 66.6015256,20.1463411" id="Shape" fill-rule="nonzero"></path>
            <path d="M85.4961818,8.45121937 L85.6671741,7.8536584 L80.7938918,7.8536584 C78.4854948,7.8536584 76.5190827,8.62195107 74.809159,10.2439023 C73.0992354,11.8658535 72.3297698,13.8292681 72.3297698,16.1341461 L72.3297698,24.5853654 L72.928243,24.4146337 C73.4412201,24.243902 73.9541972,23.9878045 74.3816781,23.5609752 C75.0656476,22.8780484 75.4076323,22.1097557 75.4076323,21.1707313 L75.4076323,16.1341461 C75.4076323,14.5975607 75.9206094,13.3170729 76.9465636,12.2926827 C77.9725178,11.2682925 79.2549605,10.6707315 80.7938918,10.6707315 L82.4183192,10.6707315 C83.273281,10.6707315 84.0427467,10.3292681 84.6412199,9.73170715 C85.0687008,9.39024374 85.4106856,8.96341448 85.4961818,8.45121937" id="Path" fill-rule="nonzero"></path>
            <path d="M127.303815,7.8536584 C124.995418,7.8536584 123.029006,8.62195107 121.319082,10.3292681 C119.694654,11.9512193 118.839693,13.9146339 118.839693,16.2195119 L118.839693,24.5853654 L119.438166,24.4146337 C119.951143,24.243902 120.46412,23.9878045 120.891601,23.5609752 C121.57557,22.8780484 121.832059,22.1097557 121.832059,21.1707313 L121.832059,16.2195119 C121.832059,14.7682924 122.345036,13.4024388 123.37099,12.3780486 C124.396944,11.2682925 125.679387,10.7560974 127.218318,10.7560974 C128.671754,10.7560974 129.954196,11.2682925 130.98015,12.3780486 C132.006105,13.4878046 132.519082,14.7682924 132.519082,16.2195119 L132.519082,21.1707313 C132.519082,22.1097557 132.861066,22.8780484 133.545036,23.5609752 C133.972517,23.9878045 134.485494,24.3292679 134.998471,24.4146337 L135.596944,24.5853654 L135.596944,16.2195119 C135.596944,13.9146339 134.741982,11.9512193 133.117555,10.3292681 C131.578624,8.62195107 129.697708,7.8536584 127.303815,7.8536584" id="Path" fill-rule="nonzero"></path>
            <path d="M138.418318,7.93902426 L137.819845,7.76829255 L137.819845,21.1707313 C137.819845,22.1097557 138.16183,22.8780484 138.845799,23.5609752 C139.27328,23.9878045 139.786257,24.3292679 140.299234,24.4146337 L140.897708,24.5853654 L140.897708,11.1829266 C140.897708,10.2439023 140.555723,9.47560959 139.871753,8.79268278 C139.529769,8.36585352 139.016792,8.10975596 138.418318,7.93902426" id="Path" fill-rule="nonzero"></path>
            <path d="M92.4213725,7.8536584 C90.1129756,7.8536584 88.1465634,8.62195107 86.4366397,10.3292681 C84.7267161,11.9512193 83.9572505,13.9146339 83.9572505,16.2195119 C83.9572505,18.5243899 84.8122123,20.4878045 86.4366397,22.1097557 C88.1465634,23.7317069 90.0274794,24.4999996 92.4213725,24.4999996 L92.8488534,24.4999996 L92.8488534,24.4999996 L94.1312961,24.4999996 C94.9862579,24.4999996 95.6702274,24.243902 96.2687007,23.5609752 C96.6961816,23.1341459 96.9526701,22.7073167 97.0381663,22.1951216 L97.2091586,21.5975606 L92.7633572,21.5975606 L92.3358763,21.5975606 C90.796945,21.5975606 89.5145023,21.0853655 88.4885481,19.9756094 C87.4625939,18.8658533 86.9496168,17.5853656 86.9496168,16.1341461 C86.9496168,14.6829266 87.4625939,13.3170729 88.4885481,12.2926827 C89.5145023,11.1829266 90.796945,10.6707315 92.3358763,10.6707315 C93.7893114,10.6707315 95.1572503,11.1829266 96.1832045,12.2926827 C97.2091586,13.4024388 97.7221357,14.6829266 97.7221357,16.1341461 L97.8076319,25.0975605 C97.8076319,26.54878 97.2946548,27.9146337 96.1832045,28.9390239 C95.1572503,29.9634141 93.8748076,30.5609751 92.3358763,30.5609751 L90.7114488,30.5609751 C89.856487,30.5609751 89.0870214,30.9024385 88.4885481,31.4999995 C88.1465634,31.9268287 87.8900748,32.3536584 87.7190825,32.7804872 L87.5480901,33.3780482 L92.4213725,33.3780482 C94.8152656,33.3780482 96.7816777,32.6097555 98.4061052,30.9878044 C100.116029,29.3658532 100.885494,27.4024386 100.885494,25.0975605 L100.885494,16.2195119 C100.885494,13.9146339 100.030533,11.9512193 98.4061052,10.3292681 C96.7816777,8.62195107 94.8152656,7.8536584 92.4213725,7.8536584" id="Path" fill-rule="nonzero"></path>
            <path d="M157.141982,10.3292681 C155.432058,8.70731692 153.465646,7.8536584 151.157249,7.8536584 C148.848852,7.8536584 146.88244,8.62195107 145.172517,10.3292681 C143.462593,11.9512193 142.693127,13.9146339 142.693127,16.2195119 C142.693127,18.5243899 143.548089,20.4878045 145.172517,22.1097557 C146.88244,23.7317069 148.848852,24.4999996 151.157249,24.4999996 L151.755723,24.4999996 C152.610684,24.4999996 153.294654,24.243902 153.893127,23.5609752 C154.320608,23.1341459 154.577097,22.7073167 154.662593,22.1951216 L154.833585,21.5975606 L151.071753,21.5975606 C149.618318,21.5975606 148.250379,21.0853655 147.224425,19.9756094 C146.198471,18.8658533 145.685494,17.5853656 145.685494,16.1341461 C145.685494,14.6829266 146.198471,13.3170729 147.224425,12.2926827 C148.250379,11.1829266 149.532822,10.6707315 151.071753,10.6707315 C152.610684,10.6707315 153.893127,11.1829266 154.919081,12.2926827 C155.945036,13.4024388 156.458013,14.6829266 156.458013,16.1341461 L156.458013,21.1707313 C156.458013,22.1097557 156.799997,22.8780484 157.483967,23.5609752 C157.911448,23.9878045 158.424425,24.3292679 159.022898,24.4146337 L159.621371,24.5853654 L159.621371,16.0487802 C159.621371,13.9146339 158.76641,11.9512193 157.141982,10.3292681" id="Path" fill-rule="nonzero"></path>
            <path d="M115.932822,21.6829265 L111.145036,21.6829265 C111.145036,21.6829265 111.05954,21.6829265 111.05954,21.6829265 L110.803052,21.6829265 C109.349616,21.6829265 107.981678,21.1707313 106.955723,20.0609753 C105.929769,19.036585 105.416792,17.6707314 105.416792,16.2195119 C105.416792,14.7682924 105.929769,13.4878046 106.955723,12.3780486 C107.981678,11.2682925 109.26412,10.7560974 110.803052,10.7560974 L110.974044,10.7560974 C111.05954,10.7560974 111.05954,10.7560974 111.145036,10.7560974 L113.453433,10.7560974 C113.453433,10.7560974 113.538929,10.7560974 113.538929,10.7560974 L113.624426,10.7560974 L113.709922,10.7560974 L116.018319,10.7560974 C116.4458,10.7560974 116.787784,10.5853657 117.044273,10.3292681 C117.300761,10.0731706 117.471754,9.73170715 117.471754,9.30487789 C117.471754,8.87804863 117.300761,8.53658522 117.044273,8.28048766 C116.787784,8.02439011 116.4458,7.8536584 116.018319,7.8536584 L110.888548,7.8536584 C108.580151,7.8536584 106.613739,8.62195107 104.903815,10.3292681 C103.193891,11.9512193 102.424426,13.9146339 102.424426,16.2195119 C102.424426,18.5243899 103.193891,20.4878045 104.903815,22.1097557 C106.528242,23.7317069 108.494655,24.4999996 110.888548,24.4999996 L113.453433,24.4999996 C113.453433,24.4999996 113.538929,24.4999996 113.538929,24.4999996 C113.624426,24.4999996 113.624426,24.4999996 113.709922,24.4999996 L116.018319,24.4999996 C116.4458,24.4999996 116.787784,24.3292679 117.044273,24.0731703 C117.300761,23.8170728 117.471754,23.4756094 117.471754,23.0487801 C117.471754,22.6219508 117.300761,22.2804874 117.044273,22.0243899 C116.702288,21.7682923 116.360303,21.6829265 115.932822,21.6829265" id="Path" fill-rule="nonzero"></path>
            <path d="M109.606105,17.5853656 L113.709922,17.5853656 C114.65038,17.5853656 115.419845,17.2439021 116.018319,16.6463412 C116.4458,16.2195119 116.787784,15.7926827 116.87328,15.2804875 L117.044273,14.6829266 L109.520609,14.6829266 C108.836639,14.6829266 108.15267,15.3658534 108.15267,16.1341461 C108.15267,16.9024387 108.751143,17.5853656 109.606105,17.5853656 Z" id="Path" fill-rule="nonzero"></path>
            <polygon id="Path" fill-rule="nonzero" points="56.1709914 42.8536578 54.546564 39.6097554 55.487022 39.6097554 56.5984723 41.9999993 57.7099227 39.6097554 58.5648845 39.6097554 56.940457 42.8536578 56.940457 45.07317 56.1709914 45.07317"></polygon>
            <path d="M61.3007623,42.3414627 C61.3007623,41.6585359 61.3007623,41.2317066 61.3862585,41.0609749 C61.3862585,40.8048774 61.4717547,40.6341456 61.5572509,40.5487798 C61.7282432,40.2926822 61.8992356,40.0365847 62.1557241,39.865853 C62.4122127,39.6951213 62.7541974,39.5243896 63.1816783,39.5243896 C63.6091592,39.5243896 63.9511439,39.6097554 64.2076325,39.865853 C64.464121,40.0365847 64.7206096,40.2926822 64.8061058,40.5487798 C64.8916019,40.7195115 64.9770981,40.8902432 64.9770981,41.0609749 C64.9770981,41.3170725 65.0625943,41.7439017 65.0625943,42.3414627 C65.0625943,42.9390237 65.0625943,43.3658529 64.9770981,43.6219505 C64.9770981,43.878048 64.8916019,44.0487797 64.8061058,44.1341456 C64.7206096,44.3902431 64.464121,44.6463407 64.2076325,44.8170724 C63.9511439,44.9878041 63.6091592,45.1585358 63.1816783,45.1585358 C62.7541974,45.1585358 62.4122127,45.07317 62.1557241,44.8170724 C61.8137394,44.6463407 61.642747,44.3902431 61.5572509,44.1341456 C61.5572509,44.0487797 61.4717547,43.9634139 61.4717547,43.878048 C61.4717547,43.7926822 61.4717547,43.7073163 61.3862585,43.6219505 C61.3007623,43.3658529 61.3007623,42.9390237 61.3007623,42.3414627 M62.1557241,42.3414627 C62.1557241,42.8536578 62.1557241,43.2804871 62.2412203,43.4512188 C62.2412203,43.6219505 62.3267165,43.7926822 62.4122127,43.878048 C62.4977089,43.9634139 62.583205,44.0487797 62.7541974,44.1341456 C62.9251898,44.2195114 63.0106859,44.2195114 63.2671745,44.2195114 C63.4381669,44.2195114 63.6091592,44.2195114 63.7801516,44.1341456 C63.9511439,44.0487797 64.0366401,43.9634139 64.1221363,43.878048 C64.2076325,43.7926822 64.2931287,43.6219505 64.3786249,43.4512188 C64.3786249,43.2804871 64.464121,42.9390237 64.464121,42.3414627 C64.464121,41.8292676 64.464121,41.4024383 64.3786249,41.2317066 C64.2931287,41.0609749 64.2931287,40.8902432 64.1221363,40.8048774 C64.0366401,40.7195115 63.9511439,40.5487798 63.7801516,40.5487798 C63.6091592,40.4634139 63.4381669,40.4634139 63.2671745,40.4634139 C63.0961821,40.4634139 62.9251898,40.4634139 62.7541974,40.5487798 C62.583205,40.6341456 62.4977089,40.7195115 62.4122127,40.8048774 C62.3267165,40.8902432 62.2412203,41.0609749 62.2412203,41.2317066 C62.1557241,41.4024383 62.1557241,41.8292676 62.1557241,42.3414627" id="Shape" fill-rule="nonzero"></path>
            <path d="M68.7389301,39.6097554 L69.5938919,39.6097554 L69.5938919,43.1951212 C69.5938919,43.5365846 69.6793881,43.878048 69.9358767,44.0487797 C70.106869,44.3048773 70.3633576,44.3902431 70.7053423,44.3902431 C71.047327,44.3902431 71.3038156,44.3048773 71.4748079,44.0487797 C71.6458003,43.878048 71.8167927,43.5365846 71.8167927,43.1951212 L71.8167927,39.6097554 L72.5862583,39.6097554 L72.5862583,43.2804871 C72.5862583,43.878048 72.4152659,44.3048773 72.0732812,44.6463407 C71.7312965,44.9878041 71.2183194,45.1585358 70.7053423,45.1585358 C70.1923652,45.1585358 69.6793881,44.9878041 69.3374034,44.6463407 C68.9954187,44.3048773 68.8244263,43.878048 68.8244263,43.2804871 L68.8244263,39.6097554 L68.7389301,39.6097554 Z" id="Path" fill-rule="nonzero"></path>
            <path d="M76.2625941,39.6097554 L78.3999987,39.6097554 C78.8274796,39.6097554 79.1694643,39.6951213 79.511449,39.9512188 C79.8534338,40.2073164 80.0244261,40.6341456 80.0244261,41.1463408 C80.0244261,41.9146334 79.6824414,42.4268285 78.9984719,42.6829261 L80.1954185,45.1585358 L79.2549605,45.1585358 L78.1435101,42.768292 L77.1175559,42.768292 L77.1175559,45.1585358 L76.2625941,45.1585358 L76.2625941,39.6097554 Z M77.0320598,41.9999993 L78.2290063,41.9999993 C78.570991,41.9999993 78.7419834,41.9146334 78.9129758,41.7439017 C79.0839681,41.57317 79.1694643,41.4024383 79.1694643,41.1463408 C79.1694643,40.8902432 79.0839681,40.6341456 78.9129758,40.5487798 C78.7419834,40.4634139 78.570991,40.3780481 78.3145025,40.3780481 L77.0320598,40.3780481 L77.0320598,41.9999993 Z" id="Shape" fill-rule="nonzero"></path>
            <polygon id="Path" fill-rule="nonzero" points="87.975571 39.6097554 88.6595405 39.6097554 91.1389297 43.5365846 91.1389297 43.5365846 91.1389297 39.6097554 91.9938916 39.6097554 91.9938916 45.07317 91.2244259 45.07317 88.7450367 41.1463408 88.7450367 41.1463408 88.7450367 45.07317 87.975571 45.07317"></polygon>
            <polygon id="Path" fill-rule="nonzero" points="95.8412197 39.6097554 99.261067 39.6097554 99.261067 40.3780481 96.6106854 40.3780481 96.6106854 41.9146334 98.8335861 41.9146334 98.8335861 42.6829261 96.6106854 42.6829261 96.6106854 44.3048773 99.261067 44.3048773 99.261067 45.07317 95.8412197 45.07317"></polygon>
            <polygon id="Path" fill-rule="nonzero" points="104.134349 43.0243895 102.937403 45.07317 101.996945 45.07317 103.706868 42.2560968 102.167937 39.6097554 103.022899 39.6097554 104.134349 41.4878042 105.160304 39.6097554 106.100762 39.6097554 104.56183 42.2560968 106.186258 45.07317 105.331296 45.07317"></polygon>
            <polygon id="Path" fill-rule="nonzero" points="110.290074 40.2926822 108.836639 40.2926822 108.836639 39.6097554 112.598471 39.6097554 112.598471 40.2926822 111.145036 40.2926822 111.145036 45.07317 110.290074 45.07317"></polygon>
            <polygon id="Path" fill-rule="nonzero" points="120.207632 39.6097554 123.627479 39.6097554 123.627479 40.3780481 121.062593 40.3780481 121.062593 41.9146334 123.285494 41.9146334 123.285494 42.6829261 121.062593 42.6829261 121.062593 44.3048773 123.627479 44.3048773 123.627479 45.07317 120.207632 45.07317"></polygon>
            <polygon id="Path" fill-rule="nonzero" points="127.132822 39.6097554 127.902288 39.6097554 130.296181 43.5365846 130.296181 43.5365846 130.296181 39.6097554 131.151143 39.6097554 131.151143 45.07317 130.381677 45.07317 127.987784 41.1463408 127.902288 41.1463408 127.902288 45.07317 127.132822 45.07317"></polygon>
            <polygon id="Path" fill-rule="nonzero" points="134.998471 39.6097554 138.418318 39.6097554 138.418318 40.3780481 135.767937 40.3780481 135.767937 41.9146334 137.990837 41.9146334 137.990837 42.6829261 135.767937 42.6829261 135.767937 44.3048773 138.418318 44.3048773 138.418318 45.07317 134.998471 45.07317"></polygon>
            <path d="M141.838166,39.6097554 L143.890074,39.6097554 C144.317555,39.6097554 144.745036,39.6951213 145.001524,39.9512188 C145.343509,40.2073164 145.514501,40.6341456 145.514501,41.1463408 C145.514501,41.9146334 145.172517,42.4268285 144.488547,42.6829261 L145.77099,45.1585358 L144.830532,45.1585358 L143.719082,42.768292 L142.693127,42.768292 L142.693127,45.1585358 L141.838166,45.1585358 L141.838166,39.6097554 Z M142.693127,41.9999993 L143.97557,41.9999993 C144.317555,41.9999993 144.488547,41.9146334 144.65954,41.7439017 C144.830532,41.57317 144.916028,41.4024383 144.916028,41.1463408 C144.916028,40.8902432 144.830532,40.6341456 144.65954,40.5487798 C144.488547,40.4634139 144.317555,40.3780481 144.061066,40.3780481 L142.693127,40.3780481 L142.693127,41.9999993 Z" id="Shape" fill-rule="nonzero"></path>
            <path d="M150.900761,42.0853651 L152.781677,42.0853651 L152.781677,43.1951212 C152.781677,43.7073163 152.610684,44.2195114 152.183204,44.5609749 C151.841219,44.9024383 151.328242,45.1585358 150.815265,45.1585358 C150.387784,45.1585358 150.045799,45.07317 149.78931,44.8170724 C149.447326,44.6463407 149.276333,44.3902431 149.190837,44.1341456 C149.105341,44.0487797 149.105341,43.9634139 149.105341,43.878048 C149.105341,43.7926822 149.105341,43.7073163 149.019845,43.6219505 C149.019845,43.3658529 148.934349,42.9390237 148.934349,42.3414627 C148.934349,41.6585359 148.934349,41.2317066 149.019845,41.0609749 C149.019845,40.8048774 149.105341,40.6341456 149.190837,40.5487798 C149.276333,40.2926822 149.532822,40.0365847 149.78931,39.865853 C150.045799,39.6951213 150.387784,39.5243896 150.815265,39.5243896 C151.328242,39.5243896 151.755723,39.6951213 152.097707,39.9512188 C152.439692,40.2926822 152.610684,40.6341456 152.696181,41.1463408 L151.841219,41.1463408 C151.755723,40.8902432 151.670226,40.7195115 151.499234,40.5487798 C151.328242,40.3780481 151.071753,40.2926822 150.815265,40.2926822 C150.644272,40.2926822 150.47328,40.2926822 150.302288,40.3780481 C150.131295,40.4634139 150.045799,40.5487798 149.960303,40.6341456 C149.874807,40.7195115 149.78931,40.8902432 149.78931,41.0609749 C149.78931,41.2317066 149.703814,41.6585359 149.703814,42.170731 C149.703814,42.6829261 149.703814,43.1097554 149.78931,43.2804871 C149.78931,43.4512188 149.874807,43.6219505 149.960303,43.7073163 C150.045799,43.7926822 150.131295,43.878048 150.302288,43.9634139 C150.47328,44.0487797 150.644272,44.0487797 150.815265,44.0487797 C151.157249,44.0487797 151.413738,43.9634139 151.58473,43.7073163 C151.755723,43.4512188 151.926715,43.1951212 151.926715,42.8536578 L151.926715,42.5975603 L150.815265,42.5975603 L150.815265,42.0853651 L150.900761,42.0853651 Z" id="Path" fill-rule="nonzero"></path>
            <polygon id="Path" fill-rule="nonzero" points="157.398471 42.8536578 155.774043 39.6097554 156.629005 39.6097554 157.740455 41.9999993 158.851906 39.6097554 159.706868 39.6097554 158.08244 42.8536578 158.08244 45.07317 157.398471 45.07317"></polygon>
        </g>
    </g>
</svg>